<svg width="501" height="255" viewBox="0 0 501 255" fill="none" xmlns="http://www.w3.org/2000/svg">
<path d="M199.628 15.2668C200.961 41.4002 204.028 44.4668 246.428 61.2668C271.628 71.2668 280.695 76.0668 286.561 82.6002L291.228 87.6668V75.2668C291.228 64.4668 290.695 61.9335 287.761 55.8002C282.161 44.7335 275.095 40.3335 237.895 25.4002C217.895 17.4002 209.095 12.3335 203.095 5.1335L198.961 0.333502L199.628 15.2668Z" fill="black"/>
<path d="M199.495 56.3335C200.161 71.0001 201.761 75.2668 208.828 81.8001C216.561 89.0001 220.428 90.8668 255.095 104.333C271.628 110.733 285.495 118.867 289.228 124.067C291.095 126.733 291.228 125.933 291.228 114.6C291.228 90.2001 285.228 84.3335 244.695 68.4668C220.561 58.8668 211.228 54.2001 204.295 47.9335L198.828 43.0001L199.495 56.3335Z" fill="black"/>
<path d="M199.228 90.2001C199.228 109.667 203.895 120.867 214.428 127C217.495 128.733 231.628 134.733 245.895 140.333C273.361 151 282.561 155.933 287.895 162.867L291.228 167L291.095 156.333C291.095 140.2 289.628 134.867 283.761 128.733C278.028 123 261.495 114.333 243.228 107.667C223.628 100.6 210.828 93.6668 204.828 87.1335L199.228 81.0001V90.2001Z" fill="black"/>
<path d="M14.6946 195C11.7613 196.067 7.89464 198.333 6.02798 200.333C3.09464 203.133 2.56131 205 2.56131 211.133C2.56131 217.533 3.09464 219 6.16131 221.667C10.028 225 20.028 227.667 28.9613 227.667C36.6946 227.667 44.2946 229.933 45.7613 232.733C51.4946 243.8 24.6946 247.533 9.76131 237.667L4.96131 234.467L2.02798 238.467C-1.70536 243.4 -0.772023 244.867 8.96131 249.133C14.828 251.8 18.028 252.333 29.8946 252.333C40.828 252.333 44.828 251.8 48.1613 249.933C53.3613 247.133 56.5613 241.533 56.5613 235C56.5613 223.4 49.7613 219 30.1613 217.533C23.7613 217 17.228 216.067 15.628 215.533C11.3613 213.933 11.4946 208.333 15.8946 205.533C20.428 202.467 38.028 203.533 44.2946 207.133L48.6946 209.667L51.228 206.333C54.5613 201.933 54.5613 200.067 50.9613 198.2C41.628 193.133 24.028 191.667 14.6946 195Z" fill="black"/>
<path d="M155.495 194.467C136.695 199.933 128.428 221.133 137.895 239.667C141.361 246.333 146.028 249.933 154.961 252.467C168.295 256.333 184.428 253 192.161 244.733C202.961 233.267 201.628 207.933 189.628 199.533C181.495 193.667 166.161 191.4 155.495 194.467ZM179.095 206.067C186.161 209.533 189.095 214.6 189.095 222.733C189.095 236.2 180.961 243.533 166.561 243.667C153.495 243.667 144.561 235.533 144.561 223.667C144.561 211.533 153.495 203.667 167.228 203.667C171.628 203.667 176.428 204.6 179.095 206.067Z" fill="black"/>
<path d="M68.828 223.267L69.228 252.333L74.2946 252.733L79.228 253.133V243.933V234.6L95.7613 234.2C114.295 233.667 117.761 232.2 122.295 223.533C127.628 213.4 121.895 198.6 111.495 195.667C108.828 195 98.028 194.333 87.4946 194.333H68.5613L68.828 223.267ZM111.761 207.933C114.561 211.8 114.428 218.867 111.628 221.133C110.161 222.467 104.561 223.133 94.2946 223.533L79.228 223.933V214.467V205H94.428C108.695 205 109.895 205.133 111.761 207.933Z" fill="black"/>
<path d="M213.495 195.267C212.961 195.667 212.561 208.867 212.561 224.6V253H217.895H223.228V243V233H230.428H237.495L245.895 243L254.295 253H260.961C267.228 253 267.495 252.867 265.628 250.6C256.295 239.533 253.895 236.333 253.895 235.133C253.895 234.333 256.295 232.733 259.095 231.533C268.295 227.667 272.028 214.067 266.695 203.933C262.695 196.2 256.428 194.333 233.761 194.333C223.095 194.333 213.895 194.733 213.495 195.267ZM256.961 209.267C259.228 212.333 259.495 213.667 258.428 216.6C256.295 222.733 245.361 225 229.361 222.867L223.228 221.933V213.4V204.867L238.695 205.267C253.895 205.667 254.295 205.8 256.961 209.267Z" fill="black"/>
<path d="M276.561 199.667V205H287.895H299.228V229.133V253.133L304.961 252.733L310.561 252.333L310.028 228.6L309.628 205H321.761H333.895V199.667V194.333H305.228H276.561V199.667Z" fill="black"/>
<path d="M346.828 195.267C345.628 196.333 345.628 232.067 346.828 243.933L347.628 253H351.895H356.161L357.095 243.533C357.495 238.333 357.495 225.133 357.095 214.2L356.161 194.333H351.895C349.628 194.333 347.228 194.733 346.828 195.267Z" fill="black"/>
<path d="M367.228 195.933C367.228 196.867 370.295 203 374.028 209.667C377.628 216.2 384.428 228.733 388.961 237.267C396.828 252.333 397.361 253 401.495 253C405.495 253 406.161 252.333 412.695 239.933C416.561 232.867 423.495 220.2 428.161 212.067C432.695 203.8 436.561 196.467 436.561 195.667C436.561 195 433.895 194.333 430.695 194.333H424.828L414.561 213.933C403.361 235.4 401.895 237.667 400.561 236.067C400.028 235.533 395.228 226.6 389.895 216.333C384.561 206.067 379.628 196.867 378.828 195.933C378.161 195.133 375.228 194.333 372.428 194.333C369.095 194.333 367.228 195 367.228 195.933Z" fill="black"/>
<path d="M451.628 211.933C446.428 221.667 439.361 234.867 435.895 241.267L429.628 253H435.628C441.495 253 441.495 253 445.761 245L450.028 237H465.228H480.561L484.561 245L488.561 253H494.695H500.828L487.095 226.6C469.761 193.267 470.561 194.333 465.228 194.333C461.095 194.333 460.695 194.867 451.628 211.933ZM471.228 218.6L475.361 226.333H466.695C461.361 226.333 457.895 225.8 457.895 224.867C457.895 221.933 464.961 208.867 465.895 209.933C466.561 210.467 468.828 214.467 471.228 218.6Z" fill="black"/>
</svg>
