<svg width="501" height="62" viewBox="0 0 501 62" fill="none" xmlns="http://www.w3.org/2000/svg">
<path d="M14.6946 2.00016C11.7613 3.06683 7.89464 5.33349 6.02798 7.33349C3.09464 10.1335 2.56131 12.0002 2.56131 18.1335C2.56131 24.5335 3.09464 26.0002 6.16131 28.6668C10.028 32.0002 20.028 34.6668 28.9613 34.6668C36.6946 34.6668 44.2946 36.9335 45.7613 39.7335C51.4946 50.8002 24.6946 54.5335 9.76131 44.6668L4.96131 41.4668L2.02798 45.4668C-1.70536 50.4002 -0.772023 51.8668 8.96131 56.1335C14.828 58.8002 18.028 59.3335 29.8946 59.3335C40.828 59.3335 44.828 58.8002 48.1613 56.9335C53.3613 54.1335 56.5613 48.5335 56.5613 42.0002C56.5613 30.4002 49.7613 26.0002 30.1613 24.5335C23.7613 24.0002 17.228 23.0668 15.628 22.5335C11.3613 20.9335 11.4946 15.3335 15.8946 12.5335C20.428 9.46683 38.028 10.5335 44.2946 14.1335L48.6946 16.6668L51.228 13.3335C54.5613 8.93349 54.5613 7.06683 50.9613 5.20016C41.628 0.133493 24.028 -1.33317 14.6946 2.00016Z" fill="#0EA5E9"/>
<path d="M155.495 1.46683C136.695 6.9335 128.428 28.1335 137.895 46.6668C141.361 53.3335 146.028 56.9335 154.961 59.4668C168.295 63.3335 184.428 60.0002 192.161 51.7335C202.961 40.2668 201.628 14.9335 189.628 6.5335C181.495 0.66683 166.161 -1.59984 155.495 1.46683ZM179.095 13.0668C186.161 16.5335 189.095 21.6002 189.095 29.7335C189.095 43.2002 180.961 50.5335 166.561 50.6668C153.495 50.6668 144.561 42.5335 144.561 30.6668C144.561 18.5335 153.495 10.6668 167.228 10.6668C171.628 10.6668 176.428 11.6002 179.095 13.0668Z" fill="#0EA5E9"/>
<path d="M68.828 30.2668L69.228 59.3334L74.2946 59.7334L79.228 60.1334V50.9334V41.6001L95.7613 41.2001C114.295 40.6668 117.761 39.2001 122.295 30.5334C127.628 20.4001 121.895 5.60009 111.495 2.66676C108.828 2.00009 98.028 1.33343 87.4946 1.33343H68.5613L68.828 30.2668ZM111.761 14.9334C114.561 18.8001 114.428 25.8668 111.628 28.1334C110.161 29.4668 104.561 30.1334 94.2946 30.5334L79.228 30.9334V21.4668V12.0001H94.428C108.695 12.0001 109.895 12.1334 111.761 14.9334Z" fill="#0EA5E9"/>
<path d="M213.495 2.26679C212.961 2.66679 212.561 15.8668 212.561 31.6001V60.0001H217.895H223.228V50.0001V40.0001H230.428H237.495L245.895 50.0001L254.295 60.0001H260.961C267.228 60.0001 267.495 59.8668 265.628 57.6001C256.295 46.5335 253.895 43.3335 253.895 42.1335C253.895 41.3335 256.295 39.7335 259.095 38.5335C268.295 34.6668 272.028 21.0668 266.695 10.9335C262.695 3.20012 256.428 1.33345 233.761 1.33345C223.095 1.33345 213.895 1.73345 213.495 2.26679ZM256.961 16.2668C259.228 19.3335 259.495 20.6668 258.428 23.6001C256.295 29.7335 245.361 32.0001 229.361 29.8668L223.228 28.9335V20.4001V11.8668L238.695 12.2668C253.895 12.6668 254.295 12.8001 256.961 16.2668Z" fill="#0EA5E9"/>
<path d="M276.561 6.66676V12.0001H287.895H299.228V36.1334V60.1334L304.961 59.7334L310.561 59.3334L310.028 35.6001L309.628 12.0001H321.761H333.895V6.66676V1.33343H305.228H276.561V6.66676Z" fill="#0EA5E9"/>
<path d="M346.828 2.26679C345.628 3.33345 345.628 39.0668 346.828 50.9335L347.628 60.0001H351.895H356.161L357.095 50.5335C357.495 45.3335 357.495 32.1335 357.095 21.2001L356.161 1.33345H351.895C349.628 1.33345 347.228 1.73345 346.828 2.26679Z" fill="#0EA5E9"/>
<path d="M367.228 2.93345C367.228 3.86679 370.295 10.0001 374.028 16.6668C377.628 23.2001 384.428 35.7335 388.961 44.2668C396.828 59.3335 397.361 60.0001 401.495 60.0001C405.495 60.0001 406.161 59.3335 412.695 46.9335C416.561 39.8668 423.495 27.2001 428.161 19.0668C432.695 10.8001 436.561 3.46679 436.561 2.66679C436.561 2.00012 433.895 1.33345 430.695 1.33345H424.828L414.561 20.9335C403.361 42.4001 401.895 44.6668 400.561 43.0668C400.028 42.5335 395.228 33.6001 389.895 23.3335C384.561 13.0668 379.628 3.86679 378.828 2.93345C378.161 2.13345 375.228 1.33345 372.428 1.33345C369.095 1.33345 367.228 2.00012 367.228 2.93345Z" fill="#0EA5E9"/>
<path d="M451.628 18.9335C446.428 28.6668 439.361 41.8668 435.895 48.2668L429.628 60.0001H435.628C441.495 60.0001 441.495 60.0001 445.761 52.0001L450.028 44.0001H465.228H480.561L484.561 52.0001L488.561 60.0001H494.695H500.828L487.095 33.6001C469.761 0.266786 470.561 1.33345 465.228 1.33345C461.095 1.33345 460.695 1.86679 451.628 18.9335ZM471.228 25.6001L475.361 33.3335H466.695C461.361 33.3335 457.895 32.8001 457.895 31.8668C457.895 28.9335 464.961 15.8668 465.895 16.9335C466.561 17.4668 468.828 21.4668 471.228 25.6001Z" fill="#0EA5E9"/>
</svg>
