<svg width="94" height="167" viewBox="0 0 94 167" fill="none" xmlns="http://www.w3.org/2000/svg">
<path d="M1.62794 15.2668C2.96127 41.4002 6.02794 44.4668 48.4279 61.2668C73.6279 71.2668 82.6946 76.0668 88.5613 82.6002L93.2279 87.6668V75.2668C93.2279 64.4668 92.6946 61.9335 89.7613 55.8002C84.1613 44.7335 77.0946 40.3335 39.8946 25.4002C19.8946 17.4002 11.0946 12.3335 5.09461 5.1335L0.961273 0.333504L1.62794 15.2668Z" fill="#0EA5E9"/>
<path d="M1.49464 56.3335C2.16131 71.0001 3.76131 75.2668 10.828 81.8001C18.5613 89.0001 22.428 90.8668 57.0946 104.333C73.628 110.733 87.4946 118.867 91.228 124.067C93.0946 126.733 93.228 125.933 93.228 114.6C93.228 90.2001 87.228 84.3335 46.6946 68.4668C22.5613 58.8668 13.228 54.2001 6.29464 47.9335L0.827972 43.0001L1.49464 56.3335Z" fill="#06B6D4"/>
<path d="M1.22794 90.2001C1.22794 109.667 5.8946 120.867 16.4279 127C19.4946 128.733 33.6279 134.733 47.8946 140.333C75.3613 151 84.5613 155.933 89.8946 162.867L93.2279 167L93.0946 156.333C93.0946 140.2 91.6279 134.867 85.7613 128.733C80.0279 123 63.4946 114.333 45.2279 107.667C25.6279 100.6 12.8279 93.6668 6.82794 87.1335L1.22794 81.0001V90.2001Z" fill="#06B6D4"/>
</svg>
